<?xml version="1.0" encoding="UTF-8"?>
<svg id="Layer_1" xmlns="http://www.w3.org/2000/svg" version="1.1" viewBox="0 0 42.05 42.05">
  <!-- Generator: Adobe Illustrator 29.5.0, SVG Export Plug-In . SVG Version: 2.1.0 Build 137)  -->
  <defs>
    <style>
      .st0 {
        fill: #f6f6f6;
      }

      .st1 {
        fill: #1d1d1b;
      }
    </style>
  </defs>
  <rect class="st1" x=".73" y=".73" width="40.59" height="40.59" rx="5.05" ry="5.05"/>
  <path class="st0" d="M22.72,12.03c.14-.06.29-.11.44-.15h8.8c1.37,0,2.49-1.26,2.49-2.82v-1.46H15.68v.02c-1.59.05-2.97.35-4.14.93-1.25.65-2.22,1.54-2.91,2.68-.69,1.14-1.03,2.46-1.03,3.96,0,1.4.26,2.56.79,3.49.53.93,1.37,1.7,2.56,2.32,1.17.61,2.72,1.16,4.66,1.65,1.62.4,2.83.82,3.65,1.24.82.42,1.37.89,1.65,1.41.28.53.44,1.11.44,1.76,0,.73-.17,1.33-.52,1.83-.34.49-.84.86-1.49,1.12-.14.06-.29.11-.44.15h-8.8c-1.37,0-2.49,1.26-2.49,2.82v1.46h18.77v-.02c1.59-.05,2.97-.35,4.14-.93,1.25-.65,2.22-1.54,2.91-2.68.69-1.14,1.03-2.46,1.03-3.96,0-1.4-.26-2.56-.79-3.49-.53-.93-1.37-1.7-2.56-2.32-1.17-.61-2.72-1.16-4.66-1.65-1.62-.4-2.83-.82-3.65-1.24-.82-.42-1.37-.89-1.65-1.41-.28-.53-.44-1.11-.44-1.76,0-.73.17-1.33.52-1.83.34-.49.84-.86,1.49-1.12ZM14.05,17.93c-.77-.32-1.31-.71-1.6-1.18-.29-.45-.45-1.02-.45-1.71,0-.87.33-1.72.9-2.29.74-.75,1.52-.86,2.78-.87h1.33c-.47.98-.7,2.1-.7,3.35s.26,2.41.79,3.4c.06.11.13.22.19.33-1.39-.36-2.47-.7-3.24-1.03ZM27.99,24.12c.77.32,1.31.71,1.6,1.18.29.45.45,1.02.45,1.71,0,.87-.33,1.72-.9,2.29-.74.75-1.52.86-2.78.87h-1.33c.47-.98.7-2.1.7-3.35s-.26-2.41-.79-3.4c-.06-.11-.13-.22-.19-.33,1.39.36,2.47.7,3.24,1.03Z"/>
</svg>