<?xml version="1.0" encoding="UTF-8"?>
<svg id="Layer_1" xmlns="http://www.w3.org/2000/svg" version="1.1" viewBox="0 0 228.15 45.16">
  <!-- Generator: Adobe Illustrator 29.5.0, SVG Export Plug-In . SVG Version: 2.1.0 Build 137)  -->
  <defs>
    <style>
      .st0 {
        fill: #3c3c3b;
      }

      .st1 {
        fill: #dedc00;
      }
    </style>
  </defs>
  <path class="st1" d="M-1012.43-431.06c.01,3.12.7,5.68,2.03,7.72,1.34,2.09,3.78,3.86,7.24,5.31,3.49,1.49,8.39,3.05,14.67,4.68,9.45,2.16,17.01,4.96,22.59,8.32,5.55,3.37,9.55,7.3,11.95,11.76,2.4,4.5,3.56,9.56,3.56,15.37,0,7.08-1.62,13.18-4.93,18.38-3.25,5.17-7.93,9.14-13.89,11.94-5.96,2.76-12.98,4.14-21.09,4.14-1.84,0-3.62-.07-5.34-.25v-11.69c0-3.49,2.51-6.34,5.59-6.34h.06c4.18,0,7.77-.57,10.67-1.74,2.96-1.17,5.21-2.83,6.74-5.07,1.56-2.23,2.34-4.96,2.34-8.25,0-2.94-.69-5.56-1.97-7.93-1.28-2.34-3.78-4.46-7.46-6.38-3.68-1.88-9.17-3.79-16.48-5.6-8.74-2.2-15.76-4.68-21.03-7.44-5.34-2.8-9.14-6.27-11.55-10.49-2.4-4.18-3.59-9.42-3.59-15.76,0-6.77,1.53-12.72,4.65-17.89,3.09-5.17,7.49-9.17,13.14-12.11,5.27-2.62,11.51-4,18.69-4.22v-.11h84.78v6.59c0,7.04-5.03,12.75-11.23,12.75h-73.55c-5.7.04-9.19.54-12.55,3.91-2.58,2.6-4.06,6.44-4.05,10.36Z"/>
  <path class="st1" d="M-930.93-377.04c-.01-3.12-.7-5.68-2.03-7.72-1.34-2.09-3.78-3.86-7.24-5.31-3.49-1.49-8.39-3.05-14.67-4.68-9.45-2.16-17.01-4.96-22.59-8.32-5.55-3.37-9.55-7.3-11.95-11.76-2.4-4.5-3.56-9.56-3.56-15.37,0-7.08,1.62-13.18,4.93-18.38,3.25-5.17,7.93-9.14,13.89-11.94,5.96-2.76,12.98-4.14,21.09-4.14,1.84,0,3.62.07,5.34.25v11.69c0,3.49-2.51,6.34-5.59,6.34h-.06c-4.18,0-7.77.57-10.67,1.74-2.96,1.17-5.21,2.83-6.74,5.07-1.56,2.23-2.34,4.96-2.34,8.25,0,2.94.69,5.56,1.97,7.93,1.28,2.34,3.78,4.46,7.46,6.38,3.68,1.88,9.17,3.79,16.48,5.6,8.74,2.2,15.76,4.68,21.03,7.44,5.34,2.8,9.14,6.27,11.55,10.49,2.4,4.18,3.59,9.42,3.59,15.76,0,6.77-1.53,12.72-4.65,17.89-3.09,5.17-7.49,9.17-13.14,12.11-5.27,2.62-11.51,4-18.69,4.22v.11h-84.78v-6.59c0-7.04,5.03-12.75,11.23-12.75h73.55c5.7-.04,9.19-.54,12.55-3.91,2.58-2.6,4.06-6.44,4.05-10.36Z"/>
  <g>
    <path class="st0" d="M-503.39-109.46c-1.68-.71-3.98-1.29-6.89-1.74-1.39-.24-2.49-.51-3.33-.81-.83-.29-1.43-.68-1.79-1.17-.36-.48-.55-1.09-.55-1.82,0-1.04.4-1.87,1.2-2.5.8-.62,1.98-.94,3.53-.94,1.04,0,1.94.18,2.7.55.76.36,1.37.89,1.82,1.58.45.69.76,1.51.94,2.44l6.7-.31c-.24-1.8-.84-3.4-1.79-4.81-.95-1.4-2.28-2.51-3.98-3.33-1.7-.81-3.79-1.22-6.29-1.22-3.85,0-6.77.81-8.76,2.42-1.99,1.61-2.99,3.72-2.99,6.31,0,1.59.34,2.93,1.01,4,.68,1.07,1.83,1.97,3.46,2.68,1.63.71,3.86,1.31,6.7,1.79,1.7.31,2.98.62,3.85.94s1.46.68,1.77,1.09c.31.42.47.94.47,1.56,0,1.07-.44,1.86-1.33,2.37-.88.5-2.11.75-3.66.75-1.91,0-3.34-.4-4.31-1.2-.97-.8-1.58-1.92-1.82-3.38l-6.81.31c.14,1.8.71,3.41,1.71,4.83,1,1.42,2.43,2.53,4.29,3.33,1.85.8,4.15,1.2,6.89,1.2,2.39,0,4.48-.32,6.26-.96s3.17-1.58,4.16-2.83c.99-1.25,1.48-2.75,1.48-4.52,0-1.52-.36-2.83-1.07-3.92-.71-1.09-1.91-1.99-3.59-2.7Z"/>
    <path class="st0" d="M-472.15-121.54c-1.75-1.32-3.94-1.97-6.58-1.97-2.11,0-3.96.53-5.53,1.58-1.17.78-2.09,1.84-2.78,3.17l-.11-4.13h-6.39v35.55h6.65v-11.62c.32.59.7,1.14,1.17,1.64.85.9,1.87,1.59,3.07,2.08,1.2.48,2.49.73,3.87.73,2.63,0,4.82-.66,6.57-1.98,1.75-1.32,3.07-3.07,3.95-5.25s1.33-4.61,1.33-7.28-.43-5.09-1.3-7.28c-.87-2.18-2.17-3.93-3.92-5.25ZM-475.58-102.34c-1.16,1.61-2.75,2.42-4.75,2.42-1.35,0-2.52-.34-3.51-1.01-.99-.68-1.74-1.69-2.26-3.04-.52-1.35-.78-3.03-.78-5.04s.27-3.69.81-5.04c.54-1.35,1.29-2.37,2.26-3.04.97-.68,2.13-1.01,3.48-1.01,2.01,0,3.59.8,4.75,2.42,1.16,1.61,1.74,3.84,1.74,6.68s-.58,5.07-1.74,6.68Z"/>
    <path class="st0" d="M-453.5-121.1c-.81.83-1.43,2.02-1.87,3.55l-.18-5.35h-6.24v27.75h6.65v-16.01c0-1.42.23-2.57.7-3.46.47-.88,1.17-1.53,2.1-1.95s2.11-.62,3.53-.62h2.6v-5.72h-2.55c-2.01,0-3.59.6-4.75,1.79Z"/>
    <rect class="st0" x="-441.88" y="-122.89" width="6.65" height="27.75"/>
    <rect class="st0" x="-441.98" y="-132.51" width="6.91" height="5.92"/>
    <path class="st0" d="M-407.81-122.16c-1.4-.9-3.13-1.35-5.17-1.35-1.49,0-2.86.28-4.11.83-1.25.55-2.3,1.42-3.17,2.6-.41.56-.76,1.22-1.04,1.96l-.16-4.76h-6.03v27.75h6.65v-15.7c0-2.36.53-4.16,1.58-5.41,1.06-1.25,2.47-1.87,4.24-1.87,1.18,0,2.12.29,2.83.86.71.57,1.22,1.39,1.53,2.47s.47,2.39.47,3.95v15.7h6.65v-17.83c0-2.08-.36-3.91-1.09-5.48s-1.79-2.81-3.2-3.72Z"/>
    <path class="st0" d="M-388.45-129.39h-6.65v6.5h-4.37v5.15h4.37v14.66c0,2.74.65,4.75,1.95,6.03,1.3,1.28,3.33,1.92,6.11,1.92h5.92v-5.15h-3.9c-1.18,0-2.04-.25-2.6-.75-.55-.5-.83-1.39-.83-2.68v-14.03h7.33v-5.15h-7.33v-6.5Z"/>
    <path class="st0" d="M-351.55-99.97c-.52,0-.91-.14-1.17-.42s-.39-.78-.39-1.51v-10.08c0-3.71-1.01-6.56-3.04-8.55-2.03-1.99-5.02-2.99-8.96-2.99-3.43,0-6.22.79-8.37,2.36-2.15,1.58-3.5,3.84-4.05,6.78l6.76.31c.35-1.39.98-2.45,1.9-3.2s2.17-1.12,3.77-1.12c1.77,0,3.1.49,4,1.48s1.35,2.47,1.35,4.44l-9.2,1.82c-3.05.59-5.32,1.56-6.81,2.91-1.49,1.35-2.23,3.22-2.23,5.61s.88,4.25,2.65,5.59c1.77,1.33,4.11,2,7.02,2,1.73,0,3.29-.26,4.68-.78,1.38-.52,2.54-1.25,3.46-2.21.58-.6,1.02-1.26,1.34-1.97.12.81.31,1.51.61,2.07.49.92,1.18,1.56,2.08,1.92.9.36,1.92.55,3.07.55.48,0,.96-.02,1.43-.05.47-.04.8-.09,1.01-.16v-4.83h-.88ZM-359.77-106.36c0,1.42-.29,2.65-.88,3.69-.59,1.04-1.42,1.85-2.49,2.44-1.07.59-2.36.88-3.85.88-1.32,0-2.33-.29-3.04-.88-.71-.59-1.07-1.42-1.07-2.5,0-.97.32-1.76.96-2.36.64-.61,1.71-1.07,3.2-1.38l7.17-1.46v1.56Z"/>
  </g>
  <path class="st1" d="M-555.15-124.01c.22-.09.45-.16.69-.23h13.78c2.15,0,3.9-1.98,3.9-4.42v-2.28h-29.4v.04c-2.49.07-4.65.55-6.48,1.46-1.96,1.02-3.48,2.41-4.56,4.2-1.08,1.79-1.61,3.86-1.61,6.2,0,2.2.41,4.02,1.24,5.47.83,1.46,2.15,2.67,4,3.64,1.83.96,4.26,1.82,7.29,2.58,2.53.63,4.44,1.29,5.71,1.94,1.28.66,2.14,1.4,2.59,2.21.44.82.68,1.73.68,2.75,0,1.14-.27,2.09-.81,2.86-.53.77-1.31,1.35-2.34,1.76-.22.09-.45.16-.69.23h-13.78c-2.15,0-3.9,1.98-3.9,4.42v2.28h29.4v-.04c2.49-.07,4.65-.55,6.48-1.46,1.96-1.02,3.48-2.41,4.56-4.2,1.08-1.79,1.61-3.86,1.61-6.2,0-2.2-.41-4.02-1.24-5.47-.83-1.46-2.15-2.67-4-3.64-1.83-.96-4.26-1.82-7.29-2.58-2.53-.63-4.44-1.29-5.71-1.94-1.28-.66-2.14-1.4-2.59-2.21-.44-.82-.68-1.73-.68-2.75,0-1.14.27-2.09.81-2.86.53-.77,1.31-1.35,2.34-1.76ZM-568.72-114.77c-1.2-.5-2.04-1.12-2.51-1.84-.46-.71-.7-1.6-.7-2.68,0-1.36.51-2.69,1.41-3.59,1.16-1.17,2.37-1.34,4.35-1.36h2.09c-.73,1.54-1.09,3.28-1.09,5.24s.4,3.77,1.23,5.33c.09.17.2.34.3.51-2.17-.56-3.87-1.1-5.08-1.62ZM-546.88-105.08c1.2.5,2.04,1.12,2.51,1.84.46.71.7,1.6.7,2.68,0,1.36-.51,2.69-1.41,3.59-1.16,1.17-2.37,1.34-4.35,1.36h-2.09c.73-1.54,1.09-3.28,1.09-5.24s-.4-3.77-1.23-5.33c-.09-.17-.2-.34-.3-.51,2.17.56,3.87,1.1,5.08,1.62Z"/>
  <g>
    <g>
      <path class="st0" d="M75.44,23.05c-1.68-.71-3.98-1.29-6.89-1.74-1.39-.24-2.49-.51-3.33-.81-.83-.29-1.43-.68-1.79-1.17-.36-.48-.55-1.09-.55-1.82,0-1.04.4-1.87,1.2-2.5.8-.62,1.98-.94,3.53-.94,1.04,0,1.94.18,2.7.55.76.36,1.37.89,1.82,1.58.45.69.76,1.51.94,2.44l6.7-.31c-.24-1.8-.84-3.4-1.79-4.81-.95-1.4-2.28-2.51-3.98-3.33-1.7-.81-3.79-1.22-6.29-1.22-3.85,0-6.77.81-8.76,2.42-1.99,1.61-2.99,3.72-2.99,6.31,0,1.59.34,2.93,1.01,4,.68,1.07,1.83,1.97,3.46,2.68,1.63.71,3.86,1.31,6.7,1.79,1.7.31,2.98.62,3.85.94s1.46.68,1.77,1.09c.31.42.47.94.47,1.56,0,1.07-.44,1.86-1.33,2.37-.88.5-2.11.75-3.66.75-1.91,0-3.34-.4-4.31-1.2-.97-.8-1.58-1.92-1.82-3.38l-6.81.31c.14,1.8.71,3.41,1.71,4.83,1,1.42,2.43,2.53,4.29,3.33,1.85.8,4.15,1.2,6.89,1.2,2.39,0,4.48-.32,6.26-.96s3.17-1.58,4.16-2.83c.99-1.25,1.48-2.75,1.48-4.52,0-1.52-.36-2.83-1.07-3.92-.71-1.09-1.91-1.99-3.59-2.7Z"/>
      <path class="st0" d="M106.67,10.97c-1.75-1.32-3.94-1.97-6.58-1.97-2.11,0-3.96.53-5.53,1.58-1.17.78-2.09,1.84-2.78,3.17l-.11-4.13h-6.39v35.55h6.65v-11.62c.32.59.7,1.14,1.17,1.64.85.9,1.87,1.59,3.07,2.08,1.2.48,2.49.73,3.87.73,2.63,0,4.82-.66,6.57-1.98,1.75-1.32,3.07-3.07,3.95-5.25s1.33-4.61,1.33-7.28-.43-5.09-1.3-7.28c-.87-2.18-2.17-3.93-3.92-5.25ZM103.24,30.17c-1.16,1.61-2.75,2.42-4.75,2.42-1.35,0-2.52-.34-3.51-1.01-.99-.68-1.74-1.69-2.26-3.04-.52-1.35-.78-3.03-.78-5.04s.27-3.69.81-5.04c.54-1.35,1.29-2.37,2.26-3.04.97-.68,2.13-1.01,3.48-1.01,2.01,0,3.59.8,4.75,2.42,1.16,1.61,1.74,3.84,1.74,6.68s-.58,5.07-1.74,6.68Z"/>
      <path class="st0" d="M125.33,11.41c-.81.83-1.43,2.02-1.87,3.55l-.18-5.35h-6.24v27.75h6.65v-16.01c0-1.42.23-2.57.7-3.46.47-.88,1.17-1.53,2.1-1.95s2.11-.62,3.53-.62h2.6v-5.72h-2.55c-2.01,0-3.59.6-4.75,1.79Z"/>
      <rect class="st0" x="136.95" y="9.61" width="6.65" height="27.75"/>
      <rect class="st0" x="136.84" width="6.91" height="5.92"/>
      <path class="st0" d="M171.01,10.34c-1.4-.9-3.13-1.35-5.17-1.35-1.49,0-2.86.28-4.11.83-1.25.55-2.3,1.42-3.17,2.6-.41.56-.76,1.22-1.04,1.96l-.16-4.76h-6.03v27.75h6.65v-15.7c0-2.36.53-4.16,1.58-5.41,1.06-1.25,2.47-1.87,4.24-1.87,1.18,0,2.12.29,2.83.86.71.57,1.22,1.39,1.53,2.47s.47,2.39.47,3.95v15.7h6.65v-17.83c0-2.08-.36-3.91-1.09-5.48s-1.79-2.81-3.2-3.72Z"/>
      <path class="st0" d="M190.37,3.12h-6.65v6.5h-4.37v5.15h4.37v14.66c0,2.74.65,4.75,1.95,6.03,1.3,1.28,3.33,1.92,6.11,1.92h5.92v-5.15h-3.9c-1.18,0-2.04-.25-2.6-.75-.55-.5-.83-1.39-.83-2.68v-14.03h7.33v-5.15h-7.33V3.12Z"/>
      <path class="st0" d="M227.27,32.53c-.52,0-.91-.14-1.17-.42s-.39-.78-.39-1.51v-10.08c0-3.71-1.01-6.56-3.04-8.55-2.03-1.99-5.02-2.99-8.96-2.99-3.43,0-6.22.79-8.37,2.36-2.15,1.58-3.5,3.84-4.05,6.78l6.76.31c.35-1.39.98-2.45,1.9-3.2s2.17-1.12,3.77-1.12c1.77,0,3.1.49,4,1.48s1.35,2.47,1.35,4.44l-9.2,1.82c-3.05.59-5.32,1.56-6.81,2.91-1.49,1.35-2.23,3.22-2.23,5.61s.88,4.25,2.65,5.59c1.77,1.33,4.11,2,7.02,2,1.73,0,3.29-.26,4.68-.78,1.38-.52,2.54-1.25,3.46-2.21.58-.6,1.02-1.26,1.34-1.97.12.81.31,1.51.61,2.07.49.92,1.18,1.56,2.08,1.92.9.36,1.92.55,3.07.55.48,0,.96-.02,1.43-.05.47-.04.8-.09,1.01-.16v-4.83h-.88ZM219.06,26.14c0,1.42-.29,2.65-.88,3.69-.59,1.04-1.42,1.85-2.49,2.44-1.07.59-2.36.88-3.85.88-1.32,0-2.33-.29-3.04-.88-.71-.59-1.07-1.42-1.07-2.5,0-.97.32-1.76.96-2.36.64-.61,1.71-1.07,3.2-1.38l7.17-1.46v1.56Z"/>
    </g>
    <path class="st1" d="M23.67,8.5c.22-.09.45-.16.69-.23h13.78c2.15,0,3.9-1.98,3.9-4.42V1.56H12.65v.04c-2.49.07-4.65.55-6.48,1.46-1.96,1.02-3.48,2.41-4.56,4.2-1.08,1.79-1.61,3.86-1.61,6.2,0,2.2.41,4.02,1.24,5.47.83,1.46,2.15,2.67,4,3.64,1.83.96,4.26,1.82,7.29,2.58,2.53.63,4.44,1.29,5.71,1.94,1.28.66,2.14,1.4,2.59,2.21.44.82.68,1.73.68,2.75,0,1.14-.27,2.09-.81,2.86-.53.77-1.31,1.35-2.34,1.76-.22.09-.45.16-.69.23H3.9c-2.15,0-3.9,1.98-3.9,4.42v2.28h29.4v-.04c2.49-.07,4.65-.55,6.48-1.46,1.96-1.02,3.48-2.41,4.56-4.2,1.08-1.79,1.61-3.86,1.61-6.2,0-2.2-.41-4.02-1.24-5.47-.83-1.46-2.15-2.67-4-3.64-1.83-.96-4.26-1.82-7.29-2.58-2.53-.63-4.44-1.29-5.71-1.94-1.28-.66-2.14-1.4-2.59-2.21-.44-.82-.68-1.73-.68-2.75,0-1.14.27-2.09.81-2.86.53-.77,1.31-1.35,2.34-1.76ZM10.11,17.74c-1.2-.5-2.04-1.12-2.51-1.84-.46-.71-.7-1.6-.7-2.68,0-1.36.51-2.69,1.41-3.59,1.16-1.17,2.37-1.34,4.35-1.36h2.09c-.73,1.54-1.09,3.28-1.09,5.24s.4,3.77,1.23,5.33c.09.17.2.34.3.51-2.17-.56-3.87-1.1-5.08-1.62ZM31.94,27.43c1.2.5,2.04,1.12,2.51,1.84.46.71.7,1.6.7,2.68,0,1.36-.51,2.69-1.41,3.59-1.16,1.17-2.37,1.34-4.35,1.36h-2.09c.73-1.54,1.09-3.28,1.09-5.24s-.4-3.77-1.23-5.33c-.09-.17-.2-.34-.3-.51,2.17.56,3.87,1.1,5.08,1.62Z"/>
  </g>
</svg>