<?xml version="1.0" encoding="UTF-8"?>
<svg id="Layer_1" xmlns="http://www.w3.org/2000/svg" version="1.1" viewBox="0 0 42.05 42.05">
  <!-- Generator: Adobe Illustrator 29.5.0, SVG Export Plug-In . SVG Version: 2.1.0 Build 137)  -->
  <defs>
    <style>
      .st0 {
        fill: #dedc00;
      }
    </style>
  </defs>
  <path class="st0" d="M23.67,6.94c.22-.09.45-.16.69-.23h13.78c2.15,0,3.9-1.98,3.9-4.42V0H12.65v.04c-2.49.07-4.65.55-6.48,1.46-1.96,1.02-3.48,2.41-4.56,4.2-1.08,1.79-1.61,3.86-1.61,6.2,0,2.2.41,4.02,1.24,5.47.83,1.46,2.15,2.67,4,3.64,1.83.96,4.26,1.82,7.29,2.58,2.53.63,4.44,1.29,5.71,1.94,1.28.66,2.14,1.4,2.59,2.21.44.82.68,1.73.68,2.75,0,1.14-.27,2.09-.81,2.86-.53.77-1.31,1.35-2.34,1.76-.22.09-.45.16-.69.23H3.9c-2.15,0-3.9,1.98-3.9,4.42v2.28h29.4v-.04c2.49-.07,4.65-.55,6.48-1.46,1.96-1.02,3.48-2.41,4.56-4.2,1.08-1.79,1.61-3.86,1.61-6.2,0-2.2-.41-4.02-1.24-5.47-.83-1.46-2.15-2.67-4-3.64-1.83-.96-4.26-1.82-7.29-2.58-2.53-.63-4.44-1.29-5.71-1.94-1.28-.66-2.14-1.4-2.59-2.21-.44-.82-.68-1.73-.68-2.75,0-1.14.27-2.09.81-2.86.53-.77,1.31-1.35,2.34-1.76ZM10.11,16.18c-1.2-.5-2.04-1.12-2.51-1.84-.46-.71-.7-1.6-.7-2.68,0-1.36.51-2.69,1.41-3.59,1.16-1.17,2.37-1.34,4.35-1.36h2.09c-.73,1.54-1.09,3.28-1.09,5.24s.4,3.77,1.23,5.33c.09.17.2.34.3.51-2.17-.56-3.87-1.1-5.08-1.62ZM31.94,25.87c1.2.5,2.04,1.12,2.51,1.84.46.71.7,1.6.7,2.68,0,1.36-.51,2.69-1.41,3.59-1.16,1.17-2.37,1.34-4.35,1.36h-2.09c.73-1.54,1.09-3.28,1.09-5.24s-.4-3.77-1.23-5.33c-.09-.17-.2-.34-.3-.51,2.17.56,3.87,1.1,5.08,1.62Z"/>
</svg>